<?xml version="1.0" encoding="UTF-8"?>
<!--Generator: Apple Native CoreSVG 341-->
<!DOCTYPE svg
PUBLIC "-//W3C//DTD SVG 1.1//EN"
       "http://www.w3.org/Graphics/SVG/1.1/DTD/svg11.dtd">
<svg version="1.1" xmlns="http://www.w3.org/2000/svg" xmlns:xlink="http://www.w3.org/1999/xlink" viewBox="0 0 236.938 250.195">
 <g>
  <rect height="250.195" opacity="0" width="236.938" x="0" y="0"/>
  <path d="M30.3223 156.665L30.3223 40.1367C30.3223 32.959 33.3984 30.3223 40.0635 30.3223L196.802 30.3223C203.54 30.3223 206.616 32.959 206.616 40.1367L206.616 156.665C206.616 163.77 203.54 166.406 196.802 166.406L40.0635 166.406C33.3984 166.406 30.3223 163.77 30.3223 156.665Z" fill="black" fill-opacity="0.2125"/>
  <path d="M59.1064 141.138L112.866 141.138C116.162 141.138 118.652 138.721 118.652 135.205C118.652 131.763 116.162 129.492 112.866 129.492L59.1064 129.492C55.5908 129.492 53.1006 131.763 53.1006 135.205C53.1006 138.794 55.5908 141.138 59.1064 141.138ZM59.1064 119.604L134.546 119.604C137.915 119.604 140.332 117.261 140.332 113.672C140.332 110.229 137.915 107.959 134.546 107.959L59.1064 107.959C55.5908 107.959 53.1006 110.229 53.1006 113.672C53.1006 117.261 55.5908 119.604 59.1064 119.604ZM60.3516 72.29C64.2334 72.29 67.5293 69.0674 67.5293 65.1855C67.5293 61.1572 64.2334 57.7881 60.3516 57.7881C56.3232 57.7881 53.1006 61.1572 53.1006 65.1855C53.1006 69.0674 56.3232 72.29 60.3516 72.29ZM60.3516 93.75C64.2334 93.75 67.5293 90.4541 67.5293 86.4258C67.5293 82.5439 64.2334 79.248 60.3516 79.248C56.3232 79.248 53.1006 82.5439 53.1006 86.4258C53.1006 90.4541 56.3232 93.75 60.3516 93.75ZM74.3408 75.2197C74.3408 82.6172 77.7832 89.6484 82.1777 93.2373C83.2764 94.1162 84.668 94.7754 86.4258 94.7754C88.916 94.7754 91.1865 92.6514 91.1865 89.8682C91.1865 88.0371 90.2344 86.9385 88.8428 85.4004C86.0596 82.3242 84.4482 78.7354 84.4482 75.2197C84.4482 71.6309 86.1328 68.1885 88.8428 65.1123C90.2344 63.4277 91.1865 62.4023 91.1865 60.5713C91.1865 57.7881 88.916 55.5908 86.4258 55.5908C84.7412 55.5908 83.2764 56.3232 82.1777 57.2021C77.124 61.3037 74.3408 67.8955 74.3408 75.2197Z" fill="black" fill-opacity="0.85"/>
  <path d="M178.198 193.433C173.877 193.433 170.142 189.697 170.142 185.303C170.142 180.908 173.877 177.173 178.198 177.173C182.739 177.173 186.401 180.908 186.401 185.303C186.401 189.697 182.739 193.433 178.198 193.433Z" fill="black" fill-opacity="0.2125"/>
  <path d="M0 168.97C0 192.847 12.9639 205.664 36.6211 205.664L200.317 205.664C223.975 205.664 236.938 192.847 236.938 168.97L236.938 36.7676C236.938 12.7441 223.901 0 200.171 0L36.6943 0C13.0371 0 0 12.7441 0 36.7676ZM30.3223 156.665L30.3223 40.1367C30.3223 32.959 33.3984 30.3223 40.0635 30.3223L196.802 30.3223C203.54 30.3223 206.616 32.959 206.616 40.1367L206.616 156.665C206.616 163.77 203.54 166.406 196.802 166.406L40.0635 166.406C33.3984 166.406 30.3223 163.77 30.3223 156.665ZM178.198 193.433C173.877 193.433 170.142 189.697 170.142 185.303C170.142 180.908 173.877 177.173 178.198 177.173C182.739 177.173 186.401 180.908 186.401 185.303C186.401 189.697 182.739 193.433 178.198 193.433ZM118.433 223.755C151.904 223.755 183.105 214.526 188.672 200.391L48.1934 200.391C53.833 214.526 80.5664 223.755 118.433 223.755ZM54.4189 241.992L182.52 241.992C196.875 241.992 198.926 224.341 187.134 219.8L165.747 210.938L70.459 210.938L49.8047 219.8C38.1592 224.634 40.0635 241.992 54.4189 241.992Z" fill="black" fill-opacity="0.85"/>
 </g>
</svg>
